<?xml version="1.0" standalone="no"?><!DOCTYPE svg PUBLIC "-//W3C//DTD SVG 1.1//EN" "http://www.w3.org/Graphics/SVG/1.1/DTD/svg11.dtd"><svg class="icon" width="24px" height="24.00px" viewBox="0 0 1024 1024" version="1.1" xmlns="http://www.w3.org/2000/svg"><path fill="#333333" d="M912 17.28H340.48a96 96 0 0 0-96 96v83.2h64v-83.2a32 32 0 0 1 32-32h571.52a32 32 0 0 1 32 32v650.88a31.36 31.36 0 0 1-32 31.36h-164.48v64h164.48a96 96 0 0 0 96-95.36V113.28a96 96 0 0 0-96-96z"  /><path fill="#333333" d="M683.52 1006.72H112a96 96 0 0 1-96-96V259.84a96 96 0 0 1 96-95.36h571.52a96 96 0 0 1 96 95.36v650.88a96 96 0 0 1-96 96zM112 228.48a31.36 31.36 0 0 0-32 31.36v650.88a32 32 0 0 0 32 32h571.52a32 32 0 0 0 32-32V259.84a32 32 0 0 0-32-31.36z"  /><path fill="#333333" d="M603.52 423.68H192a32 32 0 0 1-32-32 32 32 0 0 1 32-32h411.52a32 32 0 0 1 32 32 32 32 0 0 1-32 32zM603.52 617.6H192a32 32 0 0 1 0-64h411.52a32 32 0 0 1 0 64zM603.52 810.88H192a32 32 0 0 1-32-32 32 32 0 0 1 32-32h411.52a32 32 0 0 1 32 32 32 32 0 0 1-32 32z"  /></svg>